Coordinates
version=1
nRows=22
nColumns=24
inDegrees=yes

Units are S.I. units (second, meters, Newtons, ...)
Angles are in degrees.

endheader
time	pelvis_tilt	pelvis_list	pelvis_rotation	pelvis_tx	pelvis_ty	pelvis_tz	hip_flexion_r	hip_adduction_r	hip_rotation_r	knee_angle_r	ankle_angle_r	subtalar_angle_r	mtp_angle_r	hip_flexion_l	hip_adduction_l	hip_rotation_l	knee_angle_l	ankle_angle_l	subtalar_angle_l	mtp_angle_l	lumbar_extension	lumbar_bending	lumbar_rotation
      0.44100000	     -3.13599924	      3.46447323	     -1.49716459	     -0.77203482	      1.05250991	      0.28941028	     25.22114941	     -0.69027240	     -8.26474669	     -3.10349873	      4.63677517	     -1.11582153	     -0.07071850	     -6.69530300	      7.95794908	      1.24048154	     -8.14540446	     13.60469224	     -2.22173278	     -0.14251687	      2.80029245	     -0.93790391	     -1.75092018
      0.44516667	     -3.12530374	      3.42249842	     -1.49390442	     -0.76630114	      1.05200509	      0.28944856	     25.17594612	     -0.59491518	     -8.09043965	     -3.28038378	      4.66119840	     -1.01426105	     -0.07304880	     -6.77826532	      7.91503414	      1.20365511	     -8.69432283	     13.64912141	     -2.29772134	     -0.17185624	      2.84742222	     -0.85791825	     -1.81318307
      0.44933333	     -3.11791737	      3.37485730	     -1.71420635	     -0.76036782	      1.05140260	      0.28976029	     25.16617691	     -0.40591120	     -7.66711336	     -3.58395604	      4.87119380	     -0.68136674	     -0.08213063	     -6.87477725	      7.89047879	      0.93314037	     -9.22213497	     13.96284794	     -2.27841623	     -0.29641880	      2.89104937	     -0.76898465	     -2.02715564
      0.45350000	     -3.10570986	      3.33161694	     -1.80705487	     -0.75453281	      1.05087929	      0.29001416	     25.14130498	     -0.26505665	     -7.32127176	     -3.93141533	      5.03780175	     -0.42534326	     -0.09714982	     -6.91354379	      7.83861713	      0.65061579	     -9.87271913	     14.19140713	     -1.92629310	     -0.48502335	      2.89758215	     -0.76837530	     -2.16729792
      0.45766667	     -3.07028030	      3.27515275	     -1.76591827	     -0.74868178	      1.05047900	      0.28997228	     25.07629250	     -0.18311988	     -7.14204060	     -4.31630096	      5.01444807	     -0.37342731	     -0.09732968	     -6.95840532	      7.76646288	      0.64457823	    -10.56764910	     14.18303174	     -1.91490080	     -0.50366759	      2.94141899	     -0.69278046	     -2.18020121
      0.46183333	     -3.05188007	      3.24941969	     -2.00297201	     -0.74279067	      1.04992940	      0.29046722	     25.07118022	      0.00029445	     -6.54960867	     -4.79213003	      5.12166977	     -0.20570127	     -0.09928312	     -6.95694139	      7.73622954	      0.13393407	    -11.31002036	     14.50381489	     -1.40700662	     -0.64104104	      2.92486693	     -0.62898507	     -2.24782631
      0.46600000	     -3.05641092	      3.17985345	     -2.03608418	     -0.73682942	      1.04950116	      0.29086129	     25.02506386	      0.16434593	     -6.05812347	     -5.21570777	      5.10709236	     -0.35793963	     -0.10622066	     -6.88555293	      7.60480329	     -0.24833271	    -12.17068087	     14.73134597	     -0.66215797	     -0.87227093	      2.97505630	     -0.61329853	     -2.20623382
      0.47016667	     -2.99031713	      3.12066360	     -1.99840190	     -0.73091450	      1.04922020	      0.29078613	     24.92869036	      0.23653124	     -5.85624476	     -5.71583854	      5.05327380	     -0.32177009	     -0.10490855	     -6.88436655	      7.51746090	     -0.28373196	    -13.02881419	     14.68855516	     -0.65698060	     -0.88789846	      3.00356588	     -0.50269115	     -2.21852547
      0.47433333	     -2.97714654	      3.05962991	     -2.15562394	     -0.72496180	      1.04881054	      0.29147799	     24.87622056	      0.45265702	     -5.14209174	     -6.20522046	      4.96925012	     -0.64729288	     -0.09429976	     -6.76860459	      7.37935165	     -0.90848836	    -14.00095621	     14.94165542	      0.31266509	     -1.11032589	      2.92720090	     -0.43382351	     -2.17299433
      0.47850000	     -2.88447857	      2.99393545	     -2.11803521	     -0.71900086	      1.04864299	      0.29140128	     24.74122863	      0.52570402	     -4.94643453	     -6.73791404	      4.89362244	     -0.60120306	     -0.09198069	     -6.73590930	      7.27170811	     -0.98198760	    -14.97702922	     14.86238315	      0.31483771	     -1.12099221	      2.97299783	     -0.33100965	     -2.18367584
      0.48266667	     -2.86332766	      2.97061456	     -2.35121659	     -0.71307165	      1.04826466	      0.29200308	     24.73046749	      0.70425318	     -4.37927032	     -7.33454097	      4.66759003	     -0.64026049	     -0.07949158	     -6.57457124	      7.19065085	     -1.63265639	    -16.01723160	     14.71335818	      0.94796020	     -1.17741223	      2.87050365	     -0.25334377	     -2.22563067
      0.48683333	     -2.81973466	      2.89609446	     -2.39627157	     -0.70708825	      1.04806699	      0.29250545	     24.62126677	      0.87144191	     -3.89373682	     -7.83480032	      4.49572468	     -0.97410362	     -0.06214190	     -6.39660344	      7.00391540	     -2.10692427	    -17.17298732	     14.67354261	      1.70202447	     -1.22765331	      2.80341434	     -0.17731944	     -2.20486741
      0.49100000	     -2.75717086	      2.78246067	     -2.41114623	     -0.70098039	      1.04798255	      0.29300072	     24.44747061	      1.06603239	     -3.37208730	     -8.26926878	      4.22528870	     -1.36890076	     -0.03575890	     -6.22285790	      6.75566959	     -2.53919230	    -18.36992128	     14.58794983	      2.40480799	     -1.26781471	      2.85180689	     -0.14809651	     -2.15606508
      0.49516667	     -2.70887338	      2.70173488	     -2.39077230	     -0.69499611	      1.04789511	      0.29311087	     24.34810330	      1.16964535	     -3.20016028	     -8.82173517	      4.10296357	     -1.42033595	     -0.02663152	     -5.98804596	      6.57334345	     -2.82704840	    -19.63148418	     14.39251503	      2.57283793	     -1.27164359	      2.74027024	      0.00994050	     -2.17596755
      0.49933333	     -2.63465522	      2.61071012	     -2.46214736	     -0.68896380	      1.04785475	      0.29373866	     24.18067946	      1.36063842	     -2.67546037	     -9.29285330	      3.79167135	     -1.82299534	      0.00159328	     -5.75338646	      6.32943492	     -3.33224883	    -20.93072039	     14.00729178	      3.44292989	     -1.25039942	      2.78531709	      0.02910532	     -2.15608381
      0.50350000	     -2.57474533	      2.51828954	     -2.43420692	     -0.68297290	      1.04786175	      0.29387094	     24.05694117	      1.46762774	     -2.55482436	     -9.83873592	      3.67444369	     -1.88074972	      0.00954080	     -5.45998183	      6.10808619	     -3.64370049	    -22.31689714	     13.78014006	      3.59437771	     -1.24010490	      2.65331716	      0.19848566	     -2.17826447
      0.50766667	     -2.50760520	      2.47609269	     -2.51179873	     -0.67712851	      1.04783581	      0.29430966	     23.94601146	      1.57869555	     -2.20603230	    -10.39045625	      3.39423337	     -2.21345140	      0.02760798	     -5.13195024	      5.92169003	     -4.06848021	    -23.72844760	     13.15007518	      4.34857594	     -1.19469045	      2.61424704	      0.31618440	     -2.19020101
      0.51183333	     -2.46131918	      2.36721177	     -2.51651600	     -0.67112375	      1.04787384	      0.29478141	     23.80267818	      1.74154887	     -1.91278817	    -10.87176368	      3.15880760	     -2.59974840	      0.04798618	     -4.75273281	      5.62525755	     -4.48633762	    -25.22435699	     12.66406292	      4.94272966	     -1.12467374	      2.57065550	      0.43858185	     -2.18970204
      0.51600000	     -2.37772494	      2.21280799	     -2.48865257	     -0.66502860	      1.04803472	      0.29532818	     23.57744016	      1.94590800	     -1.60734881	    -11.28432770	      2.88769028	     -3.10601471	      0.08140134	     -4.39219591	      5.25313113	     -4.88050596	    -26.76202814	     12.12905942	      5.54638331	     -0.98643605	      2.61851231	      0.47543721	     -2.15348244
      0.52016667	     -2.31059287	      2.10602372	     -2.47607964	     -0.65911856	      1.04813789	      0.29566459	     23.42191743	      2.07562915	     -1.44729289	    -11.78268485	      2.70643524	     -3.36759891	      0.11070790	     -3.96444243	      4.95586539	     -5.20195654	    -28.35192785	     11.50483105	      5.95694626	     -0.85765183	      2.53465795	      0.61880089	     -2.15376613
      0.52433333	     -2.23651932	      2.00090678	     -2.46369422	     -0.65327400	      1.04826946	      0.29591380	     23.26387542	      2.18843559	     -1.33520820	    -12.29099254	      2.58123873	     -3.49777806	      0.12771550	     -3.50936500	      4.66465607	     -5.47608637	    -29.98473189	     10.87415608	      6.26216487	     -0.77668460	      2.39196442	      0.83861977	     -2.17922316
      0.52850000	     -2.16644606	      1.83857880	     -2.42484799	     -0.64725777	      1.04844938	      0.29630282	     23.06251292	      2.36735465	     -1.25458261	    -12.72767438	      2.42634920	     -3.77836746	      0.15311409	     -3.03543612	      4.27708577	     -5.76884992	    -31.63654755	     10.00647532	      6.67816838	     -0.62820991	      2.41313072	      0.93641970	     -2.16919632
